# xmcd
#
# Track frame offsets:
#	150
#	16416
#	29657
#	45699
#	61666
#	78170
#	96043
#	112911
#	127106
#	142334
#	161546
#	178171
#	191014
#	204053
#	225613
#	245048
#
# Disc length: 3454 seconds
#
# Revision: 1
# Processed by: cddbd v1.5.2PL0 Copyright (c) Steve Scherf et al.
# Submitted via: audiograbber 1.83.01
#
DISCID=d80d7c10
DTITLE=Various Artist - Desperado Hits
DYEAR=2007
DGENRE=Country
TTITLE0=Vicky Vahn - This Is Where I Get Off
TTITLE1=Miko Marks - Kickin' Back
TTITLE2=Dean Collins - She Was Never Far Away
TTITLE3=Shannah - Big River
TTITLE4=Dallas Wayne - Invisible Man
TTITLE5=CCB - Faster
TTITLE6=Jon Dean Foster - Born Survivor
TTITLE7=Collin Raye - You 've Heard That One Before
TTITLE8=Big Bull Band - Honky Tonk Heroes
TTITLE9=Irion - Two Faces
TTITLE10=Paul Delicato - Is this All There Is To A Honky Tonk
TTITLE11=Jackson Mackay - Way Down New Orleans
TTITLE12=Kevin Henderson - Gold In Her Eyes
TTITLE13=Kelly Lang - Goodbye Darlin'
TTITLE14=Sam Neely - Son Of The South
TTITLE15=Charlie Louvin With Willie Nelson and Waylon Jennings - Makin' Music
EXTD=
EXTT0=
EXTT1=
EXTT2=
EXTT3=
EXTT4=
EXTT5=
EXTT6=
EXTT7=
EXTT8=
EXTT9=
EXTT10=
EXTT11=
EXTT12=
EXTT13=
EXTT14=
EXTT15=
PLAYORDER=
